<svg width="51" height="51" viewBox="0 0 51 51" fill="none" xmlns="http://www.w3.org/2000/svg">
<path d="M46.75 14.3438H40.8236C39.5462 14.3438 38.9075 14.3438 38.3052 14.1614C37.703 13.9791 37.1716 13.6248 36.1086 12.9162C34.5145 11.8534 32.6957 10.6409 31.7921 10.3673C30.8888 10.0938 29.9306 10.0938 28.0145 10.0938C25.4088 10.0938 23.7292 10.0938 22.5577 10.5791C21.3862 11.0643 20.4649 11.9856 18.6224 13.8282L17.0008 15.4497C16.5856 15.865 16.3779 16.0726 16.2498 16.2776C15.7746 17.0375 15.8273 18.0138 16.3814 18.7181C16.5309 18.9082 16.7596 19.0923 17.2171 19.4604C18.9082 20.8213 21.3461 20.6855 22.8773 19.1451L25.5 16.5068H27.625L40.375 29.3326C41.5486 30.5133 41.5486 32.4273 40.375 33.6079C39.2014 34.7886 37.2986 34.7886 36.125 33.6079L35.0625 32.5391M35.0625 32.5391L28.6875 26.1262M35.0625 32.5391C36.2361 33.7197 36.2361 35.6339 35.0625 36.8143C33.8889 37.995 31.9861 37.995 30.8125 36.8143L28.6875 34.6768M28.6875 34.6768C29.8611 35.8572 29.8611 37.7714 28.6875 38.9521C27.5139 40.1325 25.6111 40.1325 24.4375 38.9521L21.25 35.7455M28.6875 34.6768L24.4375 30.4268M21.25 35.7455L20.1875 34.6768M21.25 35.7455C22.4236 36.9261 22.4236 38.8403 21.25 40.021C20.0764 41.2014 18.1736 41.2014 17 40.021L10.9998 33.8957C9.76682 32.637 9.15033 32.0078 8.36049 31.6757C7.57065 31.3437 6.68967 31.3437 4.92775 31.3437H4.25" stroke="#1764FF" stroke-width="2" stroke-linecap="round" stroke-linejoin="round"/>
<path d="M46.75 31.3438H41.4375" stroke="#1764FF" stroke-width="1.5" stroke-linecap="round"/>
<path d="M18.0625 14.3438H4.25" stroke="#1764FF" stroke-width="1.5" stroke-linecap="round"/>
</svg>
