<svg width="22" height="22" viewBox="0 0 22 22" fill="none" xmlns="http://www.w3.org/2000/svg">
<path d="M5.35327 8.77644C7.44501 5.07516 8.49087 3.22451 9.92606 2.74813C10.7156 2.48606 11.566 2.48606 12.3555 2.74813C13.7907 3.22451 14.8366 5.07516 16.9283 8.77644C19.0201 12.4777 20.0659 14.3283 19.7522 15.8363C19.5796 16.6659 19.1543 17.4183 18.5374 17.9858C17.416 19.0174 15.3243 19.0174 11.1408 19.0174C6.95733 19.0174 4.86559 19.0174 3.74417 17.9858C3.12725 17.4183 2.702 16.6659 2.5294 15.8363C2.21566 14.3283 3.26153 12.4777 5.35327 8.77644Z" fill="#FF1200" stroke="#D80027" stroke-width="1.33707"/>
<path d="M11.351 15.1175V11.651C11.351 11.2425 11.351 11.0382 11.224 10.9112C11.0972 10.7844 10.8929 10.7844 10.4844 10.7844" stroke="white" stroke-width="1.33707" stroke-linecap="round" stroke-linejoin="round"/>
<path d="M11.1338 8.1846H11.1397" stroke="white" stroke-width="1.78276" stroke-linecap="round" stroke-linejoin="round"/>
</svg>
