<svg width="25" height="25" viewBox="0 0 25 25" fill="none" xmlns="http://www.w3.org/2000/svg">
<path d="M23.7887 15.324C22.186 21.7526 15.6748 25.665 9.24542 24.0619C2.81872 22.4592 -1.09362 15.9476 0.509773 9.51951C2.11176 3.09017 8.62292 -0.822463 15.0503 0.780224C21.4793 2.38291 25.3914 8.89519 23.7885 15.3241L23.7886 15.324H23.7887Z" fill="#F7931A"/>
<path fill-rule="evenodd" clip-rule="evenodd" d="M17.4405 10.7114C17.6793 9.11448 16.4635 8.25606 14.801 7.68342L15.3403 5.52022L14.0235 5.19211L13.4985 7.29835C13.1523 7.21201 12.7968 7.13065 12.4435 7.05L12.9723 4.92986L11.6563 4.60175L11.1167 6.76423C10.8302 6.69901 10.5489 6.63455 10.2759 6.56663L10.2774 6.55982L8.4615 6.10636L8.11122 7.51279C8.11122 7.51279 9.08817 7.73673 9.06758 7.75052C9.60082 7.88361 9.69725 8.23659 9.68123 8.51637L9.06688 10.9808C9.1036 10.9901 9.15123 11.0036 9.20378 11.0247L9.16551 11.0151L9.16548 11.0151C9.133 11.007 9.09925 10.9986 9.06459 10.9903L8.20348 14.4425C8.13831 14.6045 7.97291 14.8476 7.6001 14.7553C7.61329 14.7744 6.64303 14.5165 6.64303 14.5165L5.98926 16.0238L7.70286 16.451C7.89051 16.498 8.07595 16.5464 8.2595 16.5942L8.25952 16.5942C8.38779 16.6277 8.51514 16.6609 8.64169 16.6932L8.09679 18.8812L9.41206 19.2093L9.95169 17.0446C10.311 17.1421 10.6597 17.2321 11.0011 17.3169L10.4633 19.4715L11.7801 19.7996L12.325 17.6157C14.5704 18.0406 16.2588 17.8693 16.9695 15.8383C17.5421 14.2031 16.941 13.26 15.7596 12.6449C16.62 12.4465 17.2681 11.8806 17.4409 10.7116L17.4405 10.7113L17.4405 10.7114ZM14.4316 14.9304C14.0583 16.4306 11.71 15.8104 10.6356 15.5266C10.5389 15.5011 10.4526 15.4783 10.3789 15.46L11.102 12.5612C11.1918 12.5836 11.3015 12.6083 11.4257 12.6362L11.4258 12.6362C12.5372 12.8856 14.8142 13.3966 14.4317 14.9304H14.4316ZM11.6486 11.2906C12.5444 11.5297 14.4984 12.0512 14.8387 10.6877H14.8389C15.1864 9.29314 13.2873 8.8727 12.3598 8.66736C12.2555 8.64426 12.1635 8.62388 12.0883 8.60514L11.4327 11.2341C11.4946 11.2495 11.5672 11.2689 11.6486 11.2906Z" fill="white"/>
</svg>
