<svg width="9" height="9" viewBox="0 0 9 9" fill="none" xmlns="http://www.w3.org/2000/svg">
<path d="M2.0625 3.75C2.10831 3.75 2.15089 3.7288 2.23606 3.6864L2.92062 3.34561C3.22354 3.19481 3.375 3.1194 3.375 3V1.5M2.0625 3.75C2.01669 3.75 1.97411 3.7288 1.88894 3.6864L1.20438 3.34561C0.901462 3.19481 0.75 3.1194 0.75 3V1.5M2.0625 3.75V2.25M3.375 1.5C3.375 1.3806 3.22354 1.3052 2.92062 1.15439L2.23606 0.813596C2.15089 0.771199 2.10831 0.75 2.0625 0.75C2.01669 0.75 1.97411 0.771199 1.88894 0.813596L1.20438 1.15439C0.901459 1.3052 0.75 1.3806 0.75 1.5M3.375 1.5C3.375 1.6194 3.22354 1.6948 2.92062 1.84561L2.23606 2.1864C2.15089 2.2288 2.10831 2.25 2.0625 2.25M0.75 1.5C0.75 1.6194 0.901459 1.6948 1.20438 1.84561L1.88894 2.1864C1.97411 2.2288 2.01669 2.25 2.0625 2.25" stroke="#6B7280" stroke-width="0.5625" stroke-linejoin="round"/>
<path d="M6.9375 3.75C6.98332 3.75 7.02589 3.7288 7.11105 3.6864L7.79561 3.34561C8.09854 3.19481 8.25 3.1194 8.25 3V1.5M6.9375 3.75C6.89168 3.75 6.84911 3.7288 6.76395 3.6864L6.07939 3.34561C5.77646 3.19481 5.625 3.1194 5.625 3V1.5M6.9375 3.75V2.25M8.25 1.5C8.25 1.3806 8.09854 1.3052 7.79561 1.15439L7.11105 0.813596C7.02589 0.771199 6.98332 0.75 6.9375 0.75C6.89168 0.75 6.84911 0.771199 6.76395 0.813596L6.07939 1.15439C5.77646 1.3052 5.625 1.3806 5.625 1.5M8.25 1.5C8.25 1.6194 8.09854 1.6948 7.79561 1.84561L7.11105 2.1864C7.02589 2.2288 6.98332 2.25 6.9375 2.25M5.625 1.5C5.625 1.6194 5.77646 1.6948 6.07939 1.84561L6.76395 2.1864C6.84911 2.2288 6.89168 2.25 6.9375 2.25" stroke="#6B7280" stroke-width="0.5625" stroke-linejoin="round"/>
<path d="M4.3125 2.25H4.6875" stroke="#6B7280" stroke-width="0.5625" stroke-linecap="round"/>
<path d="M0.75 4.5V5.8125C0.75 6.33919 0.75 6.60251 0.876397 6.79166C0.931117 6.87356 1.00143 6.94388 1.08332 6.99859C1.27249 7.125 1.53583 7.125 2.0625 7.125" stroke="#6B7280" stroke-width="0.5625" stroke-linecap="round"/>
<path d="M8.25 4.5V5.8125C8.25 6.33919 8.25 6.60251 8.12359 6.79166C8.06888 6.87356 7.99856 6.94388 7.91666 6.99859C7.72751 7.125 7.46419 7.125 6.9375 7.125" stroke="#6B7280" stroke-width="0.5625" stroke-linecap="round"/>
<path d="M4.5 8.25C4.54582 8.25 4.58839 8.22881 4.67355 8.1864L5.35811 7.8456C5.66104 7.69481 5.8125 7.6194 5.8125 7.5V6M4.5 8.25C4.45418 8.25 4.41161 8.22881 4.32645 8.1864L3.64188 7.8456C3.33896 7.69481 3.1875 7.6194 3.1875 7.5V6M4.5 8.25V6.75M5.8125 6C5.8125 5.8806 5.66104 5.80519 5.35811 5.6544L4.67355 5.3136C4.58839 5.27119 4.54582 5.25 4.5 5.25C4.45418 5.25 4.41161 5.27119 4.32645 5.3136L3.64188 5.6544C3.33896 5.80519 3.1875 5.8806 3.1875 6M5.8125 6C5.8125 6.1194 5.66104 6.19481 5.35811 6.3456L4.67355 6.6864C4.58839 6.72881 4.54582 6.75 4.5 6.75M3.1875 6C3.1875 6.1194 3.33896 6.19481 3.64188 6.3456L4.32645 6.6864C4.41161 6.72881 4.45418 6.75 4.5 6.75" stroke="#6B7280" stroke-width="0.5625" stroke-linejoin="round"/>
</svg>
