<svg width="22" height="22" viewBox="0 0 22 22" fill="none" xmlns="http://www.w3.org/2000/svg">
<path fill-rule="evenodd" clip-rule="evenodd" d="M10.6265 21.1092C11.9921 21.1092 13.3444 20.8402 14.6062 20.3176C15.8679 19.795 17.0143 19.0289 17.98 18.0633C18.9457 17.0976 19.7117 15.9512 20.2343 14.6894C20.7569 13.4277 21.0259 12.0754 21.0259 10.7098C21.0259 9.34409 20.7569 7.99179 20.2343 6.73007C19.7117 5.46835 18.9457 4.32193 17.98 3.35625C17.0143 2.39058 15.8679 1.62456 14.6062 1.10194C13.3444 0.579322 11.9921 0.310333 10.6265 0.310333C7.86838 0.310333 5.22324 1.40598 3.27297 3.35625C1.3227 5.30653 0.227051 7.95166 0.227051 10.7098C0.227051 13.4679 1.3227 16.113 3.27297 18.0633C5.22324 20.0135 7.86838 21.1092 10.6265 21.1092ZM10.3584 14.9157L16.1359 7.9828L14.361 6.50377L9.39241 12.465L6.82144 9.89283L5.18758 11.5267L8.65405 14.9932L9.5484 15.8875L10.3584 14.9157Z" fill="#28B446"/>
</svg>
