<svg width="10" height="10" viewBox="0 0 10 10" fill="none" xmlns="http://www.w3.org/2000/svg">
<path d="M3.75 6.25C3.75 5.0715 3.75 4.48225 4.11612 4.11612C4.48225 3.75 5.0715 3.75 6.25 3.75H6.66667C7.84517 3.75 8.43442 3.75 8.80054 4.11612C9.16667 4.48225 9.16667 5.0715 9.16667 6.25V6.66667C9.16667 7.84517 9.16667 8.43442 8.80054 8.80054C8.43442 9.16667 7.84517 9.16667 6.66667 9.16667H6.25C5.0715 9.16667 4.48225 9.16667 4.11612 8.80054C3.75 8.43442 3.75 7.84517 3.75 6.66667V6.25Z" stroke="#1764FF" stroke-width="0.625" stroke-linecap="round" stroke-linejoin="round"/>
<path d="M7.08345 3.74998C7.08245 2.51786 7.06383 1.87965 6.70516 1.44266C6.63591 1.35827 6.55854 1.28089 6.47416 1.21163C6.01316 0.833313 5.32829 0.833313 3.9585 0.833313C2.58871 0.833313 1.90382 0.833313 1.44284 1.21163C1.35845 1.28088 1.28107 1.35827 1.21181 1.44266C0.833496 1.90364 0.833496 2.58853 0.833496 3.95831C0.833496 5.3281 0.833496 6.01298 1.21181 6.47398C1.28107 6.55835 1.35845 6.63573 1.44284 6.70498C1.87983 7.06365 2.51804 7.08227 3.75016 7.08327" stroke="#1764FF" stroke-width="0.625" stroke-linecap="round" stroke-linejoin="round"/>
</svg>
