<svg width="21" height="21" viewBox="0 0 21 21" fill="none" xmlns="http://www.w3.org/2000/svg">
<rect x="0.849121" y="6.10876" width="15.0434" height="15.0434" rx="7.5217" transform="rotate(-20.7872 0.849121 6.10876)" fill="#1764FF"/>
<path d="M11.3512 7.47052L14.0652 8.82922L14.074 8.83364L14.0786 8.83549L14.0828 8.83805L14.0878 8.84095L14.0914 8.84317L14.097 8.84641L14.1028 8.85017L14.1142 8.8584L14.1222 8.8637L14.1298 8.86919L14.1376 8.87519L14.1388 8.87833L14.1449 8.88138L14.1463 8.88504L14.1479 8.88921L14.1549 8.89191L14.1561 8.89504L14.1647 8.89893C14.2308 8.96073 14.2771 9.04286 14.2965 9.13264C14.3159 9.22242 14.3073 9.31487 14.272 9.39573L13.1466 12.2C13.1056 12.297 13.0296 12.371 12.9348 12.4059C12.84 12.4408 12.734 12.4339 12.6396 12.3866C12.5453 12.3394 12.4702 12.2555 12.4304 12.1531C12.3907 12.0508 12.3895 11.9381 12.4272 11.8394L13.1944 9.92425L7.33962 12.1468C7.24408 12.183 7.13679 12.1766 7.04136 12.1288C6.94593 12.081 6.87017 11.9958 6.83075 11.892C6.79134 11.7882 6.79149 11.6742 6.83118 11.5751C6.87087 11.476 6.94684 11.4 7.04238 11.3637L12.8971 9.14123L11.0521 8.21713C11.0031 8.19473 10.9583 8.16228 10.9204 8.12173C10.8825 8.08118 10.8522 8.03336 10.8314 7.98111C10.8106 7.92887 10.7997 7.87327 10.7993 7.81765C10.7989 7.76202 10.8091 7.7075 10.8292 7.65733C10.8493 7.60717 10.8789 7.56239 10.9163 7.52567C10.9536 7.48896 10.998 7.46105 11.0467 7.44361C11.0955 7.42618 11.1475 7.41957 11.1998 7.4242C11.2522 7.42882 11.3036 7.44458 11.3512 7.47052Z" fill="white" fill-opacity="0.85"/>
</svg>
