<svg width="43" height="47" viewBox="0 0 43 47" fill="none" xmlns="http://www.w3.org/2000/svg">
<path d="M11.1098 12.3886C12.0769 11.7318 13.3878 11.9823 14.0446 12.9494L21.1668 23.4361C20.51 22.469 20.7605 21.1581 21.7276 20.5013C22.6947 19.8445 24.0056 20.0949 24.6624 21.0621L25.0581 21.6446C24.4013 20.6775 24.6517 19.3667 25.6188 18.7098C26.586 18.053 27.8968 18.3035 28.5537 19.2706L29.345 20.4358C28.6882 19.4687 28.9387 18.1578 29.9058 17.501C30.8729 16.8441 32.1838 17.0946 32.8406 18.0617C32.8406 18.0617 36.9161 24.0624 38.0556 25.7403C38.3722 26.2064 38.7538 26.9688 39.14 27.8132C40.4261 30.6345 39.4821 33.9828 36.9187 35.7238L32.188 38.9367C30.7199 39.9338 28.9284 40.1289 27.1721 39.8745C27.1605 39.8824 27.1526 39.8707 27.1526 39.8707L23.4723 39.3906C22.1581 39.2105 20.9116 38.729 19.8191 37.9727L13.085 33.0965C12.515 32.6834 12.3598 31.9034 12.718 31.3026C12.9106 30.9845 13.1507 30.7363 13.442 30.5385C14.176 30.0399 15.1646 29.9662 15.9998 30.4188L21.4674 33.8565C21.8258 32.8299 21.6676 31.6944 21.0662 30.8089L10.5491 15.3235" stroke="#141B34" stroke-width="1.40851" stroke-miterlimit="10" stroke-linecap="round" stroke-linejoin="round"/>
<path d="M6.76292 13.0798L5.37964 12.8155" stroke="#141B34" stroke-width="1.40851" stroke-miterlimit="10" stroke-linecap="round" stroke-linejoin="round"/>
<path d="M9.13095 9.47481L8.3396 8.30962" stroke="#141B34" stroke-width="1.40851" stroke-miterlimit="10" stroke-linecap="round" stroke-linejoin="round"/>
<path d="M13.3551 8.60118L13.6194 7.2179" stroke="#141B34" stroke-width="1.40851" stroke-miterlimit="10" stroke-linecap="round" stroke-linejoin="round"/>
<path d="M16.9587 10.9698L18.1239 10.1784" stroke="#141B34" stroke-width="1.40851" stroke-miterlimit="10" stroke-linecap="round" stroke-linejoin="round"/>
<path d="M6.47144 18.0918L7.63663 17.3005" stroke="#141B34" stroke-width="1.40851" stroke-miterlimit="10" stroke-linecap="round" stroke-linejoin="round"/>
<path d="M11.1098 12.3886C12.0769 11.7318 13.3878 11.9823 14.0446 12.9494L21.1668 23.4361C20.51 22.469 20.7605 21.1581 21.7276 20.5013C22.6947 19.8445 24.0056 20.0949 24.6624 21.0621L25.0581 21.6446C24.4013 20.6775 24.6517 19.3667 25.6188 18.7098C26.586 18.053 27.8968 18.3035 28.5537 19.2706L29.345 20.4358C28.6882 19.4687 28.9387 18.1578 29.9058 17.501C30.8729 16.8441 32.1838 17.0946 32.8406 18.0617C32.8406 18.0617 36.9161 24.0624 38.0556 25.7403C38.3722 26.2064 38.7538 26.9688 39.14 27.8132C40.4261 30.6345 39.4821 33.9828 36.9187 35.7238L32.188 38.9367C30.7199 39.9338 28.9284 40.1289 27.1721 39.8745C27.1605 39.8824 27.1526 39.8707 27.1526 39.8707L23.4723 39.3906C22.1581 39.2105 20.9116 38.729 19.8191 37.9727L13.085 33.0965C12.515 32.6834 12.3598 31.9034 12.718 31.3026C12.9106 30.9845 13.1507 30.7363 13.442 30.5385C14.176 30.0399 15.1646 29.9662 15.9998 30.4188L21.4674 33.8565C21.8258 32.8299 21.6676 31.6944 21.0662 30.8089L10.5491 15.3235" stroke="#141B34" stroke-width="1.40851" stroke-miterlimit="10" stroke-linecap="round" stroke-linejoin="round"/>
<path d="M6.76292 13.0798L5.37964 12.8155" stroke="#141B34" stroke-width="1.40851" stroke-miterlimit="10" stroke-linecap="round" stroke-linejoin="round"/>
<path d="M9.13095 9.47481L8.3396 8.30962" stroke="#141B34" stroke-width="1.40851" stroke-miterlimit="10" stroke-linecap="round" stroke-linejoin="round"/>
<path d="M13.3551 8.60118L13.6194 7.2179" stroke="#141B34" stroke-width="1.40851" stroke-miterlimit="10" stroke-linecap="round" stroke-linejoin="round"/>
<path d="M16.9587 10.9698L18.1239 10.1784" stroke="#141B34" stroke-width="1.40851" stroke-miterlimit="10" stroke-linecap="round" stroke-linejoin="round"/>
<path d="M6.47144 18.0918L7.63663 17.3005" stroke="#141B34" stroke-width="1.40851" stroke-miterlimit="10" stroke-linecap="round" stroke-linejoin="round"/>
</svg>
