<svg width="16" height="16" viewBox="0 0 16 16" fill="none" xmlns="http://www.w3.org/2000/svg">
<path d="M9 11.6562C9 11.8231 8.95052 11.9863 8.85781 12.125C8.76509 12.2638 8.63332 12.3719 8.47914 12.4358C8.32497 12.4996 8.15532 12.5163 7.99165 12.4838C7.82797 12.4512 7.67763 12.3709 7.55963 12.2529C7.44163 12.1349 7.36127 11.9845 7.32872 11.8209C7.29616 11.6572 7.31287 11.4875 7.37673 11.3334C7.44059 11.1792 7.54874 11.0474 7.68749 10.9547C7.82624 10.862 7.98938 10.8125 8.15625 10.8125C8.38003 10.8125 8.59464 10.9014 8.75287 11.0596C8.91111 11.2179 9 11.4325 9 11.6562ZM8.15625 4.0625C6.60516 4.0625 5.34375 5.19805 5.34375 6.59375V6.875C5.34375 7.02418 5.40302 7.16726 5.50851 7.27275C5.614 7.37824 5.75707 7.4375 5.90625 7.4375C6.05544 7.4375 6.19851 7.37824 6.304 7.27275C6.40949 7.16726 6.46875 7.02418 6.46875 6.875V6.59375C6.46875 5.82031 7.22602 5.1875 8.15625 5.1875C9.08649 5.1875 9.84375 5.82031 9.84375 6.59375C9.84375 7.36719 9.08649 8 8.15625 8C8.00707 8 7.864 8.05926 7.75851 8.16475C7.65302 8.27024 7.59375 8.41332 7.59375 8.5625V9.125C7.59375 9.27418 7.65302 9.41726 7.75851 9.52275C7.864 9.62824 8.00707 9.6875 8.15625 9.6875C8.30544 9.6875 8.44851 9.62824 8.554 9.52275C8.65949 9.41726 8.71875 9.27418 8.71875 9.125V9.07438C10.0013 8.83883 10.9688 7.81578 10.9688 6.59375C10.9688 5.19805 9.70735 4.0625 8.15625 4.0625ZM15.4688 8C15.4688 9.44628 15.0399 10.8601 14.2364 12.0626C13.4329 13.2651 12.2908 14.2024 10.9546 14.7559C9.61844 15.3093 8.14814 15.4541 6.72966 15.172C5.31117 14.8898 4.00821 14.1934 2.98553 13.1707C1.96286 12.148 1.26642 10.8451 0.984261 9.4266C0.702107 8.00811 0.846918 6.53781 1.40038 5.20163C1.95385 3.86544 2.89111 2.72339 4.09365 1.91988C5.29618 1.11637 6.70998 0.6875 8.15625 0.6875C10.095 0.689547 11.9538 1.46063 13.3247 2.83154C14.6956 4.20246 15.4667 6.06123 15.4688 8ZM14.3438 8C14.3438 6.77623 13.9809 5.57994 13.301 4.56241C12.6211 3.54488 11.6547 2.75181 10.5241 2.2835C9.39349 1.81518 8.14939 1.69264 6.94913 1.93139C5.74887 2.17014 4.64637 2.75944 3.78103 3.62478C2.91569 4.49011 2.32639 5.59262 2.08764 6.79288C1.8489 7.99314 1.97143 9.23724 2.43975 10.3679C2.90807 11.4985 3.70113 12.4648 4.71866 13.1447C5.73619 13.8246 6.93248 14.1875 8.15625 14.1875C9.79671 14.1856 11.3694 13.5331 12.5294 12.3732C13.6894 11.2132 14.3419 9.64046 14.3438 8Z" fill="#1764FF"/>
</svg>
