<svg width="51" height="51" viewBox="0 0 51 51" fill="none" xmlns="http://www.w3.org/2000/svg">
<path d="M12.9399 31.8733C12.1358 30.0657 11.6875 28.0549 11.6875 25.9358C11.6875 18.0657 17.8716 11.6858 25.5 11.6858C33.1285 11.6858 39.3125 18.0657 39.3125 25.9358C39.3125 28.0549 38.8641 30.0657 38.06 31.8733" stroke="#1764FF" stroke-width="2" stroke-linecap="round"/>
<path d="M25.5 4.24829V6.37329" stroke="#1764FF" stroke-width="2" stroke-linecap="round" stroke-linejoin="round"/>
<path d="M46.75 25.4983H44.625" stroke="#1764FF" stroke-width="2" stroke-linecap="round" stroke-linejoin="round"/>
<path d="M6.375 25.4983H4.25" stroke="#1764FF" stroke-width="2" stroke-linecap="round" stroke-linejoin="round"/>
<path d="M40.5246 10.4718L39.022 11.9744" stroke="#1764FF" stroke-width="2" stroke-linecap="round" stroke-linejoin="round"/>
<path d="M11.9782 11.9765L10.4756 10.4739" stroke="#1764FF" stroke-width="2" stroke-linecap="round" stroke-linejoin="round"/>
<path d="M30.8486 41.0244C32.9957 40.33 33.8567 38.3648 34.099 36.3881C34.1712 35.7976 33.6855 35.3077 33.0905 35.3077L18.0133 35.3082C17.3979 35.3082 16.9036 35.8305 16.9771 36.4414C17.2144 38.4143 17.8132 39.8554 20.0885 41.0244M30.8486 41.0244C30.8486 41.0244 20.4631 41.0244 20.0885 41.0244M30.8486 41.0244C30.5904 45.1575 29.3968 46.7944 25.5144 46.7485C21.3617 46.8252 20.4064 44.802 20.0885 41.0244" stroke="#1764FF" stroke-width="2" stroke-linecap="round" stroke-linejoin="round"/>
</svg>
