<svg width="22" height="21" viewBox="0 0 22 21" fill="none" xmlns="http://www.w3.org/2000/svg">
<path d="M5.32446 8.57946C7.4162 4.87818 8.46206 3.02754 9.89725 2.55115C10.6867 2.28908 11.5372 2.28908 12.3267 2.55115C13.7619 3.02754 14.8078 4.87818 16.8995 8.57946C18.9913 12.2807 20.0371 14.1314 19.7234 15.6393C19.5508 16.4689 19.1255 17.2213 18.5086 17.7888C17.3872 18.8204 15.2955 18.8204 11.112 18.8204C6.92852 18.8204 4.83678 18.8204 3.71537 17.7888C3.09844 17.2213 2.6732 16.4689 2.50059 15.6393C2.18685 14.1314 3.23272 12.2807 5.32446 8.57946Z" fill="#FBBB00"/>
<path d="M11.3227 14.9205V11.454C11.3227 11.0455 11.3227 10.8412 11.1957 10.7143C11.0688 10.5874 10.8646 10.5874 10.4561 10.5874" stroke="#141B34" stroke-width="1.33707" stroke-linecap="round" stroke-linejoin="round"/>
<path d="M11.105 7.98747H11.1109" stroke="#001133" stroke-width="1.78276" stroke-linecap="round" stroke-linejoin="round"/>
</svg>
