<svg width="25" height="20" viewBox="0 0 25 20" fill="none" xmlns="http://www.w3.org/2000/svg">
<path d="M25 2.30769C24.077 2.76923 23.1539 2.92308 22.077 3.07692C23.1539 2.46154 23.9231 1.53846 24.2308 0.307692C23.3077 0.923077 22.2308 1.23077 21 1.53846C20.077 0.615385 18.6923 0 17.3077 0C14.077 0 11.6154 3.07692 12.3846 6.15385C8.2308 6 4.53849 4 1.92311 0.923078C0.53849 3.23077 1.30772 6.15385 3.46157 7.69231C2.69234 7.69231 1.92311 7.38462 1.15387 7.07692C1.15387 9.38462 2.84618 11.5385 5.15387 12.1538C4.38464 12.3077 3.61541 12.4615 2.84618 12.3077C3.46157 14.3077 5.30772 15.8462 7.61541 15.8462C5.76926 17.2308 3.00003 18 0.384644 17.6923C2.69234 19.0769 5.30772 20 8.07695 20C17.4616 20 22.6923 12.1538 22.3846 4.92308C23.4616 4.30769 24.3846 3.38462 25 2.30769Z" fill="white"/>
</svg>
