<svg width="40" height="39" viewBox="0 0 40 39" fill="none" xmlns="http://www.w3.org/2000/svg">
<path d="M35.73 27.56L30.6437 15.6813C28.9213 11.6513 25.7525 11.4888 23.6238 15.3238L20.5525 20.865C18.9925 23.6763 16.0838 23.92 14.0688 21.4013L13.7113 20.9463C11.615 18.3138 8.6575 18.6388 7.14625 21.645L4.35125 27.2513C2.385 31.1513 5.22875 35.75 9.58375 35.75H30.3188C34.5438 35.75 37.3875 31.4438 35.73 27.56Z" stroke="#1764FF" stroke-width="2.4375" stroke-linecap="round" stroke-linejoin="round"/>
<path d="M11.8262 13C14.5186 13 16.7012 10.8174 16.7012 8.125C16.7012 5.43261 14.5186 3.25 11.8262 3.25C9.13378 3.25 6.95117 5.43261 6.95117 8.125C6.95117 10.8174 9.13378 13 11.8262 13Z" stroke="#1764FF" stroke-width="2.4375" stroke-linecap="round" stroke-linejoin="round"/>
</svg>
